<?xml version="1.0" encoding="UTF-8" standalone="no"?><svg xmlns="http://www.w3.org/2000/svg" xmlns:xlink="http://www.w3.org/1999/xlink" contentScriptType="application/ecmascript" contentStyleType="text/css" height="679px" preserveAspectRatio="none" style="width:1606px;height:679px;" version="1.1" viewBox="0 0 1606 679" width="1606px" zoomAndPan="magnify"><defs><filter height="300%" id="f1ervklevxrfe7" width="300%" x="-1" y="-1"><feGaussianBlur result="blurOut" stdDeviation="2.0"/><feColorMatrix in="blurOut" result="blurOut2" type="matrix" values="0 0 0 0 0 0 0 0 0 0 0 0 0 0 0 0 0 0 .4 0"/><feOffset dx="4.0" dy="4.0" in="blurOut2" result="blurOut3"/><feBlend in="SourceGraphic" in2="blurOut3" mode="normal"/></filter></defs><g><rect codeLine="3" fill="#FEFECE" filter="url(#f1ervklevxrfe7)" height="48" id="Config" style="stroke:#A80036;stroke-width:1.5;" width="71" x="793" y="312.5"/><ellipse cx="808" cy="328.5" fill="#ADD1B2" rx="11" ry="11" style="stroke:#A80036;stroke-width:1.0;"/><path d="M810.9688,334.1406 Q810.3906,334.4375 809.75,334.5859 Q809.1094,334.7344 808.4063,334.7344 Q805.9063,334.7344 804.5859,333.0859 Q803.2656,331.4375 803.2656,328.3125 Q803.2656,325.1875 804.5859,323.5313 Q805.9063,321.875 808.4063,321.875 Q809.1094,321.875 809.7578,322.0313 Q810.4063,322.1875 810.9688,322.4844 L810.9688,325.2031 Q810.3438,324.625 809.75,324.3516 Q809.1563,324.0781 808.5313,324.0781 Q807.1875,324.0781 806.5,325.1484 Q805.8125,326.2188 805.8125,328.3125 Q805.8125,330.4063 806.5,331.4766 Q807.1875,332.5469 808.5313,332.5469 Q809.1563,332.5469 809.75,332.2734 Q810.3438,332 810.9688,331.4219 L810.9688,334.1406 Z " fill="#000000"/><text fill="#000000" font-family="sans-serif" font-size="12" lengthAdjust="spacing" textLength="39" x="822" y="332.6543">Config</text><line style="stroke:#A80036;stroke-width:1.5;" x1="794" x2="863" y1="344.5" y2="344.5"/><line style="stroke:#A80036;stroke-width:1.5;" x1="794" x2="863" y1="352.5" y2="352.5"/><rect codeLine="5" fill="#FEFECE" filter="url(#f1ervklevxrfe7)" height="60.8047" id="Reader" style="stroke:#A80036;stroke-width:1.5;" width="77" x="613" y="458.5"/><ellipse cx="628" cy="474.5" fill="#B4A7E5" rx="11" ry="11" style="stroke:#A80036;stroke-width:1.0;"/><path d="M623.9219,470.2656 L623.9219,468.1094 L631.3125,468.1094 L631.3125,470.2656 L628.8438,470.2656 L628.8438,478.3438 L631.3125,478.3438 L631.3125,480.5 L623.9219,480.5 L623.9219,478.3438 L626.3906,478.3438 L626.3906,470.2656 L623.9219,470.2656 Z " fill="#000000"/><text fill="#000000" font-family="sans-serif" font-size="12" font-style="italic" lengthAdjust="spacing" textLength="45" x="642" y="478.6543">Reader</text><line style="stroke:#A80036;stroke-width:1.5;" x1="614" x2="689" y1="490.5" y2="490.5"/><line style="stroke:#A80036;stroke-width:1.5;" x1="614" x2="689" y1="498.5" y2="498.5"/><text fill="#000000" font-family="sans-serif" font-size="11" lengthAdjust="spacing" textLength="34" x="619" y="512.7104">read()</text><rect codeLine="8" fill="#FEFECE" filter="url(#f1ervklevxrfe7)" height="60.8047" id="AbstractConfigReader" style="stroke:#A80036;stroke-width:1.5;" width="169" x="567" y="306"/><ellipse cx="582" cy="322" fill="#A9DCDF" rx="11" ry="11" style="stroke:#A80036;stroke-width:1.0;"/><path d="M582.1094,317.3438 L580.9531,322.4219 L583.2813,322.4219 L582.1094,317.3438 Z M580.625,315.1094 L583.6094,315.1094 L586.9688,327.5 L584.5156,327.5 L583.75,324.4375 L580.4688,324.4375 L579.7188,327.5 L577.2813,327.5 L580.625,315.1094 Z " fill="#000000"/><text fill="#000000" font-family="sans-serif" font-size="12" font-style="italic" lengthAdjust="spacing" textLength="137" x="596" y="326.1543">AbstractConfigReader</text><line style="stroke:#A80036;stroke-width:1.5;" x1="568" x2="735" y1="338" y2="338"/><line style="stroke:#A80036;stroke-width:1.5;" x1="568" x2="735" y1="346" y2="346"/><text fill="#000000" font-family="sans-serif" font-size="11" lengthAdjust="spacing" textLength="34" x="573" y="360.2104">read()</text><rect codeLine="11" fill="#FEFECE" filter="url(#f1ervklevxrfe7)" height="73.6094" id="DBConfigReader" style="stroke:#A80036;stroke-width:1.5;" width="133" x="415" y="140.5"/><ellipse cx="430" cy="156.5" fill="#ADD1B2" rx="11" ry="11" style="stroke:#A80036;stroke-width:1.0;"/><path d="M432.9688,162.1406 Q432.3906,162.4375 431.75,162.5859 Q431.1094,162.7344 430.4063,162.7344 Q427.9063,162.7344 426.5859,161.0859 Q425.2656,159.4375 425.2656,156.3125 Q425.2656,153.1875 426.5859,151.5313 Q427.9063,149.875 430.4063,149.875 Q431.1094,149.875 431.7578,150.0313 Q432.4063,150.1875 432.9688,150.4844 L432.9688,153.2031 Q432.3438,152.625 431.75,152.3516 Q431.1563,152.0781 430.5313,152.0781 Q429.1875,152.0781 428.5,153.1484 Q427.8125,154.2188 427.8125,156.3125 Q427.8125,158.4063 428.5,159.4766 Q429.1875,160.5469 430.5313,160.5469 Q431.1563,160.5469 431.75,160.2734 Q432.3438,160 432.9688,159.4219 L432.9688,162.1406 Z " fill="#000000"/><text fill="#000000" font-family="sans-serif" font-size="12" lengthAdjust="spacing" textLength="101" x="444" y="160.6543">DBConfigReader</text><line style="stroke:#A80036;stroke-width:1.5;" x1="416" x2="547" y1="172.5" y2="172.5"/><rect fill="none" height="6" style="stroke:#C82930;stroke-width:1.0;" width="6" x="423" y="180.5"/><text fill="#000000" font-family="sans-serif" font-size="11" lengthAdjust="spacing" textLength="56" x="435" y="186.7104">dbMapper</text><line style="stroke:#A80036;stroke-width:1.5;" x1="416" x2="547" y1="193.3047" y2="193.3047"/><ellipse cx="426" cy="204.3047" fill="#84BE84" rx="3" ry="3" style="stroke:#038048;stroke-width:1.0;"/><text fill="#000000" font-family="sans-serif" font-size="11" lengthAdjust="spacing" textLength="34" x="435" y="207.5151">read()</text><rect codeLine="15" fill="#FEFECE" filter="url(#f1ervklevxrfe7)" height="73.6094" id="FileConfigReader" style="stroke:#A80036;stroke-width:1.5;" width="137" x="583" y="140.5"/><ellipse cx="598" cy="156.5" fill="#ADD1B2" rx="11" ry="11" style="stroke:#A80036;stroke-width:1.0;"/><path d="M600.9688,162.1406 Q600.3906,162.4375 599.75,162.5859 Q599.1094,162.7344 598.4063,162.7344 Q595.9063,162.7344 594.5859,161.0859 Q593.2656,159.4375 593.2656,156.3125 Q593.2656,153.1875 594.5859,151.5313 Q595.9063,149.875 598.4063,149.875 Q599.1094,149.875 599.7578,150.0313 Q600.4063,150.1875 600.9688,150.4844 L600.9688,153.2031 Q600.3438,152.625 599.75,152.3516 Q599.1563,152.0781 598.5313,152.0781 Q597.1875,152.0781 596.5,153.1484 Q595.8125,154.2188 595.8125,156.3125 Q595.8125,158.4063 596.5,159.4766 Q597.1875,160.5469 598.5313,160.5469 Q599.1563,160.5469 599.75,160.2734 Q600.3438,160 600.9688,159.4219 L600.9688,162.1406 Z " fill="#000000"/><text fill="#000000" font-family="sans-serif" font-size="12" lengthAdjust="spacing" textLength="105" x="612" y="160.6543">FileConfigReader</text><line style="stroke:#A80036;stroke-width:1.5;" x1="584" x2="719" y1="172.5" y2="172.5"/><text fill="#000000" font-family="sans-serif" font-size="11" lengthAdjust="spacing" textLength="42" x="589" y="186.7104">filePath</text><line style="stroke:#A80036;stroke-width:1.5;" x1="584" x2="719" y1="193.3047" y2="193.3047"/><ellipse cx="594" cy="204.3047" fill="#84BE84" rx="3" ry="3" style="stroke:#038048;stroke-width:1.0;"/><text fill="#000000" font-family="sans-serif" font-size="11" lengthAdjust="spacing" textLength="34" x="603" y="207.5151">read()</text><rect codeLine="20" fill="#FEFECE" filter="url(#f1ervklevxrfe7)" height="48" id="DBmapper" style="stroke:#A80036;stroke-width:1.5;" width="97" x="433" y="312.5"/><ellipse cx="448" cy="328.5" fill="#ADD1B2" rx="11" ry="11" style="stroke:#A80036;stroke-width:1.0;"/><path d="M450.9688,334.1406 Q450.3906,334.4375 449.75,334.5859 Q449.1094,334.7344 448.4063,334.7344 Q445.9063,334.7344 444.5859,333.0859 Q443.2656,331.4375 443.2656,328.3125 Q443.2656,325.1875 444.5859,323.5313 Q445.9063,321.875 448.4063,321.875 Q449.1094,321.875 449.7578,322.0313 Q450.4063,322.1875 450.9688,322.4844 L450.9688,325.2031 Q450.3438,324.625 449.75,324.3516 Q449.1563,324.0781 448.5313,324.0781 Q447.1875,324.0781 446.5,325.1484 Q445.8125,326.2188 445.8125,328.3125 Q445.8125,330.4063 446.5,331.4766 Q447.1875,332.5469 448.5313,332.5469 Q449.1563,332.5469 449.75,332.2734 Q450.3438,332 450.9688,331.4219 L450.9688,334.1406 Z " fill="#000000"/><text fill="#000000" font-family="sans-serif" font-size="12" lengthAdjust="spacing" textLength="65" x="462" y="332.6543">DBmapper</text><line style="stroke:#A80036;stroke-width:1.5;" x1="434" x2="529" y1="344.5" y2="344.5"/><line style="stroke:#A80036;stroke-width:1.5;" x1="434" x2="529" y1="352.5" y2="352.5"/><rect codeLine="23" fill="#FEFECE" filter="url(#f1ervklevxrfe7)" height="48" id="执行规则时包含回溯功能" style="stroke:#A80036;stroke-width:1.5;" width="164" x="15.5" y="13.5"/><ellipse cx="30.5" cy="29.5" fill="#E3664A" rx="11" ry="11" style="stroke:#A80036;stroke-width:1.0;"/><path d="M32.5781,29.9688 Q32.5781,29.0313 32.1563,28.5 Q31.7344,27.9688 30.9844,27.9688 Q30.25,27.9688 29.8359,28.5 Q29.4219,29.0313 29.4219,29.9688 Q29.4219,30.9219 29.8359,31.4531 Q30.25,31.9844 30.9844,31.9844 Q31.7344,31.9844 32.1563,31.4531 Q32.5781,30.9219 32.5781,29.9688 Z M34.125,33.375 L32.5,33.375 L32.5,32.7031 Q32.1719,33.1406 31.75,33.3438 Q31.3281,33.5469 30.7188,33.5469 Q29.3594,33.5469 28.5313,32.5703 Q27.7031,31.5938 27.7031,29.9688 Q27.7031,28.375 28.5313,27.3984 Q29.3594,26.4219 30.7188,26.4219 Q31.3125,26.4219 31.7656,26.625 Q32.2188,26.8281 32.5,27.2188 L32.5,26.875 Q32.5,25.75 31.875,25.1328 Q31.25,24.5156 30.1094,24.5156 Q28.3906,24.5156 27.2969,26.0391 Q26.2031,27.5625 26.2031,30 Q26.2031,32.5469 27.4609,34.0469 Q28.7188,35.5469 30.8281,35.5469 Q31.4844,35.5469 32.1094,35.3594 Q32.7344,35.1719 33.3125,34.7813 L34.0781,36.2344 Q33.4063,36.6875 32.6094,36.9141 Q31.8125,37.1406 30.9063,37.1406 Q28,37.1406 26.2734,35.2109 Q24.5469,33.2813 24.5469,30 Q24.5469,26.7813 26.1016,24.8516 Q27.6563,22.9219 30.2188,22.9219 Q32.0156,22.9219 33.0703,24.0156 Q34.125,25.1094 34.125,26.9844 L34.125,33.375 Z " fill="#000000"/><text fill="#000000" font-family="sans-serif" font-size="12" lengthAdjust="spacing" textLength="132" x="44.5" y="33.6543">执行规则时包含回溯功能</text><line style="stroke:#A80036;stroke-width:1.5;" x1="16.5" x2="178.5" y1="45.5" y2="45.5"/><line style="stroke:#A80036;stroke-width:1.5;" x1="16.5" x2="178.5" y1="53.5" y2="53.5"/><rect codeLine="24" fill="#FEFECE" filter="url(#f1ervklevxrfe7)" height="86.4141" id="NodeType" style="stroke:#A80036;stroke-width:1.5;" width="115" x="807" y="446"/><ellipse cx="831.45" cy="462" fill="#EB937F" rx="11" ry="11" style="stroke:#A80036;stroke-width:1.0;"/><path d="M835.5594,468 L827.8406,468 L827.8406,455.6094 L835.5594,455.6094 L835.5594,457.7656 L830.2938,457.7656 L830.2938,460.4375 L835.0594,460.4375 L835.0594,462.5938 L830.2938,462.5938 L830.2938,465.8438 L835.5594,465.8438 L835.5594,468 Z " fill="#000000"/><text fill="#000000" font-family="sans-serif" font-size="12" lengthAdjust="spacing" textLength="62" x="847.55" y="466.1543">NodeType</text><line style="stroke:#A80036;stroke-width:1.5;" x1="808" x2="921" y1="478" y2="478"/><text fill="#000000" font-family="sans-serif" font-size="11" lengthAdjust="spacing" textLength="58" x="813" y="492.2104">CONTINUE</text><text fill="#000000" font-family="sans-serif" font-size="11" lengthAdjust="spacing" textLength="103" x="813" y="505.0151">INTERACT Confirm</text><text fill="#000000" font-family="sans-serif" font-size="11" lengthAdjust="spacing" textLength="30" x="813" y="517.8198">FINAL</text><line style="stroke:#A80036;stroke-width:1.5;" x1="808" x2="921" y1="524.4141" y2="524.4141"/><rect codeLine="30" fill="#FEFECE" filter="url(#f1ervklevxrfe7)" height="73.6094" id="RequestType" style="stroke:#A80036;stroke-width:1.5;" width="113" x="957" y="592"/><ellipse cx="972" cy="608" fill="#EB937F" rx="11" ry="11" style="stroke:#A80036;stroke-width:1.0;"/><path d="M976.1094,614 L968.3906,614 L968.3906,601.6094 L976.1094,601.6094 L976.1094,603.7656 L970.8438,603.7656 L970.8438,606.4375 L975.6094,606.4375 L975.6094,608.5938 L970.8438,608.5938 L970.8438,611.8438 L976.1094,611.8438 L976.1094,614 Z " fill="#000000"/><text fill="#000000" font-family="sans-serif" font-size="12" lengthAdjust="spacing" textLength="81" x="986" y="612.1543">RequestType</text><line style="stroke:#A80036;stroke-width:1.5;" x1="958" x2="1069" y1="624" y2="624"/><text fill="#000000" font-family="sans-serif" font-size="11" lengthAdjust="spacing" textLength="21" x="963" y="638.2104">NLP</text><text fill="#000000" font-family="sans-serif" font-size="11" lengthAdjust="spacing" textLength="43" x="963" y="651.0151">OPTION</text><line style="stroke:#A80036;stroke-width:1.5;" x1="958" x2="1069" y1="657.6094" y2="657.6094"/><rect codeLine="35" fill="#FEFECE" filter="url(#f1ervklevxrfe7)" height="73.6094" id="ResponseType" style="stroke:#A80036;stroke-width:1.5;" width="123" x="1105" y="592"/><ellipse cx="1120" cy="608" fill="#EB937F" rx="11" ry="11" style="stroke:#A80036;stroke-width:1.0;"/><path d="M1124.1094,614 L1116.3906,614 L1116.3906,601.6094 L1124.1094,601.6094 L1124.1094,603.7656 L1118.8438,603.7656 L1118.8438,606.4375 L1123.6094,606.4375 L1123.6094,608.5938 L1118.8438,608.5938 L1118.8438,611.8438 L1124.1094,611.8438 L1124.1094,614 Z " fill="#000000"/><text fill="#000000" font-family="sans-serif" font-size="12" lengthAdjust="spacing" textLength="91" x="1134" y="612.1543">ResponseType</text><line style="stroke:#A80036;stroke-width:1.5;" x1="1106" x2="1227" y1="624" y2="624"/><text fill="#000000" font-family="sans-serif" font-size="11" lengthAdjust="spacing" textLength="56" x="1111" y="638.2104">HALF_WAY</text><text fill="#000000" font-family="sans-serif" font-size="11" lengthAdjust="spacing" textLength="30" x="1111" y="651.0151">FINAL</text><line style="stroke:#A80036;stroke-width:1.5;" x1="1106" x2="1227" y1="657.6094" y2="657.6094"/><rect codeLine="40" fill="#FEFECE" filter="url(#f1ervklevxrfe7)" height="48" id="NLPRequest" style="stroke:#A80036;stroke-width:1.5;" width="107" x="215" y="13.5"/><ellipse cx="230" cy="29.5" fill="#ADD1B2" rx="11" ry="11" style="stroke:#A80036;stroke-width:1.0;"/><path d="M232.9688,35.1406 Q232.3906,35.4375 231.75,35.5859 Q231.1094,35.7344 230.4063,35.7344 Q227.9063,35.7344 226.5859,34.0859 Q225.2656,32.4375 225.2656,29.3125 Q225.2656,26.1875 226.5859,24.5313 Q227.9063,22.875 230.4063,22.875 Q231.1094,22.875 231.7578,23.0313 Q232.4063,23.1875 232.9688,23.4844 L232.9688,26.2031 Q232.3438,25.625 231.75,25.3516 Q231.1563,25.0781 230.5313,25.0781 Q229.1875,25.0781 228.5,26.1484 Q227.8125,27.2188 227.8125,29.3125 Q227.8125,31.4063 228.5,32.4766 Q229.1875,33.5469 230.5313,33.5469 Q231.1563,33.5469 231.75,33.2734 Q232.3438,33 232.9688,32.4219 L232.9688,35.1406 Z " fill="#000000"/><text fill="#000000" font-family="sans-serif" font-size="12" lengthAdjust="spacing" textLength="75" x="244" y="33.6543">NLPRequest</text><line style="stroke:#A80036;stroke-width:1.5;" x1="216" x2="321" y1="45.5" y2="45.5"/><line style="stroke:#A80036;stroke-width:1.5;" x1="216" x2="321" y1="53.5" y2="53.5"/><rect codeLine="43" fill="#FEFECE" filter="url(#f1ervklevxrfe7)" height="60.8047" id="Request" style="stroke:#A80036;stroke-width:1.5;" width="113" x="957" y="458.5"/><ellipse cx="985.05" cy="474.5" fill="#ADD1B2" rx="11" ry="11" style="stroke:#A80036;stroke-width:1.0;"/><path d="M988.0188,480.1406 Q987.4406,480.4375 986.8,480.5859 Q986.1594,480.7344 985.4563,480.7344 Q982.9563,480.7344 981.6359,479.0859 Q980.3156,477.4375 980.3156,474.3125 Q980.3156,471.1875 981.6359,469.5313 Q982.9563,467.875 985.4563,467.875 Q986.1594,467.875 986.8078,468.0313 Q987.4563,468.1875 988.0188,468.4844 L988.0188,471.2031 Q987.3938,470.625 986.8,470.3516 Q986.2063,470.0781 985.5813,470.0781 Q984.2375,470.0781 983.55,471.1484 Q982.8625,472.2188 982.8625,474.3125 Q982.8625,476.4063 983.55,477.4766 Q984.2375,478.5469 985.5813,478.5469 Q986.2063,478.5469 986.8,478.2734 Q987.3938,478 988.0188,477.4219 L988.0188,480.1406 Z " fill="#000000"/><text fill="#000000" font-family="sans-serif" font-size="12" lengthAdjust="spacing" textLength="52" x="1001.95" y="478.6543">Request</text><line style="stroke:#A80036;stroke-width:1.5;" x1="958" x2="1069" y1="490.5" y2="490.5"/><text fill="#000000" font-family="sans-serif" font-size="11" lengthAdjust="spacing" textLength="101" x="963" y="504.7104">RequestType type</text><line style="stroke:#A80036;stroke-width:1.5;" x1="958" x2="1069" y1="511.3047" y2="511.3047"/><rect codeLine="47" fill="#FEFECE" filter="url(#f1ervklevxrfe7)" height="60.8047" id="Response" style="stroke:#A80036;stroke-width:1.5;" width="123" x="1105" y="458.5"/><ellipse cx="1133.05" cy="474.5" fill="#ADD1B2" rx="11" ry="11" style="stroke:#A80036;stroke-width:1.0;"/><path d="M1136.0188,480.1406 Q1135.4406,480.4375 1134.8,480.5859 Q1134.1594,480.7344 1133.4563,480.7344 Q1130.9563,480.7344 1129.6359,479.0859 Q1128.3156,477.4375 1128.3156,474.3125 Q1128.3156,471.1875 1129.6359,469.5313 Q1130.9563,467.875 1133.4563,467.875 Q1134.1594,467.875 1134.8078,468.0313 Q1135.4563,468.1875 1136.0188,468.4844 L1136.0188,471.2031 Q1135.3938,470.625 1134.8,470.3516 Q1134.2063,470.0781 1133.5813,470.0781 Q1132.2375,470.0781 1131.55,471.1484 Q1130.8625,472.2188 1130.8625,474.3125 Q1130.8625,476.4063 1131.55,477.4766 Q1132.2375,478.5469 1133.5813,478.5469 Q1134.2063,478.5469 1134.8,478.2734 Q1135.3938,478 1136.0188,477.4219 L1136.0188,480.1406 Z " fill="#000000"/><text fill="#000000" font-family="sans-serif" font-size="12" lengthAdjust="spacing" textLength="62" x="1149.95" y="478.6543">Response</text><line style="stroke:#A80036;stroke-width:1.5;" x1="1106" x2="1227" y1="490.5" y2="490.5"/><text fill="#000000" font-family="sans-serif" font-size="11" lengthAdjust="spacing" textLength="111" x="1111" y="504.7104">ResponseType type</text><line style="stroke:#A80036;stroke-width:1.5;" x1="1106" x2="1227" y1="511.3047" y2="511.3047"/><rect codeLine="51" fill="#FEFECE" filter="url(#f1ervklevxrfe7)" height="99.2188" id="Node" style="stroke:#A80036;stroke-width:1.5;" width="126" x="950.5" y="287"/><ellipse cx="992.95" cy="303" fill="#ADD1B2" rx="11" ry="11" style="stroke:#A80036;stroke-width:1.0;"/><path d="M995.9188,308.6406 Q995.3406,308.9375 994.7,309.0859 Q994.0594,309.2344 993.3563,309.2344 Q990.8563,309.2344 989.5359,307.5859 Q988.2156,305.9375 988.2156,302.8125 Q988.2156,299.6875 989.5359,298.0313 Q990.8563,296.375 993.3563,296.375 Q994.0594,296.375 994.7078,296.5313 Q995.3563,296.6875 995.9188,296.9844 L995.9188,299.7031 Q995.2938,299.125 994.7,298.8516 Q994.1063,298.5781 993.4813,298.5781 Q992.1375,298.5781 991.45,299.6484 Q990.7625,300.7188 990.7625,302.8125 Q990.7625,304.9063 991.45,305.9766 Q992.1375,307.0469 993.4813,307.0469 Q994.1063,307.0469 994.7,306.7734 Q995.2938,306.5 995.9188,305.9219 L995.9188,308.6406 Z " fill="#000000"/><text fill="#000000" font-family="sans-serif" font-size="12" lengthAdjust="spacing" textLength="33" x="1013.05" y="307.1543">Node</text><line style="stroke:#A80036;stroke-width:1.5;" x1="951.5" x2="1075.5" y1="319" y2="319"/><text fill="#000000" font-family="sans-serif" font-size="11" lengthAdjust="spacing" textLength="84" x="956.5" y="333.2104">NodeType type</text><text fill="#000000" font-family="sans-serif" font-size="11" lengthAdjust="spacing" textLength="94" x="956.5" y="346.0151">Request request</text><text fill="#000000" font-family="sans-serif" font-size="11" lengthAdjust="spacing" textLength="114" x="956.5" y="358.8198">Response response</text><line style="stroke:#A80036;stroke-width:1.5;" x1="951.5" x2="1075.5" y1="365.4141" y2="365.4141"/><text fill="#000000" font-family="sans-serif" font-size="11" lengthAdjust="spacing" textLength="54" x="956.5" y="379.6245">process()</text><rect codeLine="58" fill="#FEFECE" filter="url(#f1ervklevxrfe7)" height="60.8047" id="FunctionNode" style="stroke:#A80036;stroke-width:1.5;" width="119" x="937" y="147"/><ellipse cx="952" cy="163" fill="#ADD1B2" rx="11" ry="11" style="stroke:#A80036;stroke-width:1.0;"/><path d="M954.9688,168.6406 Q954.3906,168.9375 953.75,169.0859 Q953.1094,169.2344 952.4063,169.2344 Q949.9063,169.2344 948.5859,167.5859 Q947.2656,165.9375 947.2656,162.8125 Q947.2656,159.6875 948.5859,158.0313 Q949.9063,156.375 952.4063,156.375 Q953.1094,156.375 953.7578,156.5313 Q954.4063,156.6875 954.9688,156.9844 L954.9688,159.7031 Q954.3438,159.125 953.75,158.8516 Q953.1563,158.5781 952.5313,158.5781 Q951.1875,158.5781 950.5,159.6484 Q949.8125,160.7188 949.8125,162.8125 Q949.8125,164.9063 950.5,165.9766 Q951.1875,167.0469 952.5313,167.0469 Q953.1563,167.0469 953.75,166.7734 Q954.3438,166.5 954.9688,165.9219 L954.9688,168.6406 Z " fill="#000000"/><text fill="#000000" font-family="sans-serif" font-size="12" lengthAdjust="spacing" textLength="87" x="966" y="167.1543">FunctionNode</text><line style="stroke:#A80036;stroke-width:1.5;" x1="938" x2="1055" y1="179" y2="179"/><line style="stroke:#A80036;stroke-width:1.5;" x1="938" x2="1055" y1="187" y2="187"/><ellipse cx="948" cy="198" fill="#84BE84" rx="3" ry="3" style="stroke:#038048;stroke-width:1.0;"/><text fill="#000000" font-family="sans-serif" font-size="11" lengthAdjust="spacing" textLength="54" x="957" y="201.2104">process()</text><rect codeLine="62" fill="#FEFECE" filter="url(#f1ervklevxrfe7)" height="60.8047" id="SupplierNode" style="stroke:#A80036;stroke-width:1.5;" width="116" x="1091.5" y="147"/><ellipse cx="1106.5" cy="163" fill="#ADD1B2" rx="11" ry="11" style="stroke:#A80036;stroke-width:1.0;"/><path d="M1109.4688,168.6406 Q1108.8906,168.9375 1108.25,169.0859 Q1107.6094,169.2344 1106.9063,169.2344 Q1104.4063,169.2344 1103.0859,167.5859 Q1101.7656,165.9375 1101.7656,162.8125 Q1101.7656,159.6875 1103.0859,158.0313 Q1104.4063,156.375 1106.9063,156.375 Q1107.6094,156.375 1108.2578,156.5313 Q1108.9063,156.6875 1109.4688,156.9844 L1109.4688,159.7031 Q1108.8438,159.125 1108.25,158.8516 Q1107.6563,158.5781 1107.0313,158.5781 Q1105.6875,158.5781 1105,159.6484 Q1104.3125,160.7188 1104.3125,162.8125 Q1104.3125,164.9063 1105,165.9766 Q1105.6875,167.0469 1107.0313,167.0469 Q1107.6563,167.0469 1108.25,166.7734 Q1108.8438,166.5 1109.4688,165.9219 L1109.4688,168.6406 Z " fill="#000000"/><text fill="#000000" font-family="sans-serif" font-size="12" lengthAdjust="spacing" textLength="84" x="1120.5" y="167.1543">SupplierNode</text><line style="stroke:#A80036;stroke-width:1.5;" x1="1092.5" x2="1206.5" y1="179" y2="179"/><line style="stroke:#A80036;stroke-width:1.5;" x1="1092.5" x2="1206.5" y1="187" y2="187"/><ellipse cx="1102.5" cy="198" fill="#84BE84" rx="3" ry="3" style="stroke:#038048;stroke-width:1.0;"/><text fill="#000000" font-family="sans-serif" font-size="11" lengthAdjust="spacing" textLength="54" x="1111.5" y="201.2104">process()</text><rect codeLine="66" fill="#FEFECE" filter="url(#f1ervklevxrfe7)" height="60.8047" id="ConsumerNode" style="stroke:#A80036;stroke-width:1.5;" width="128" x="1242.5" y="147"/><ellipse cx="1257.5" cy="163" fill="#ADD1B2" rx="11" ry="11" style="stroke:#A80036;stroke-width:1.0;"/><path d="M1260.4688,168.6406 Q1259.8906,168.9375 1259.25,169.0859 Q1258.6094,169.2344 1257.9063,169.2344 Q1255.4063,169.2344 1254.0859,167.5859 Q1252.7656,165.9375 1252.7656,162.8125 Q1252.7656,159.6875 1254.0859,158.0313 Q1255.4063,156.375 1257.9063,156.375 Q1258.6094,156.375 1259.2578,156.5313 Q1259.9063,156.6875 1260.4688,156.9844 L1260.4688,159.7031 Q1259.8438,159.125 1259.25,158.8516 Q1258.6563,158.5781 1258.0313,158.5781 Q1256.6875,158.5781 1256,159.6484 Q1255.3125,160.7188 1255.3125,162.8125 Q1255.3125,164.9063 1256,165.9766 Q1256.6875,167.0469 1258.0313,167.0469 Q1258.6563,167.0469 1259.25,166.7734 Q1259.8438,166.5 1260.4688,165.9219 L1260.4688,168.6406 Z " fill="#000000"/><text fill="#000000" font-family="sans-serif" font-size="12" lengthAdjust="spacing" textLength="96" x="1271.5" y="167.1543">ConsumerNode</text><line style="stroke:#A80036;stroke-width:1.5;" x1="1243.5" x2="1369.5" y1="179" y2="179"/><line style="stroke:#A80036;stroke-width:1.5;" x1="1243.5" x2="1369.5" y1="187" y2="187"/><ellipse cx="1253.5" cy="198" fill="#84BE84" rx="3" ry="3" style="stroke:#038048;stroke-width:1.0;"/><text fill="#000000" font-family="sans-serif" font-size="11" lengthAdjust="spacing" textLength="54" x="1262.5" y="201.2104">process()</text><rect codeLine="70" fill="#FEFECE" filter="url(#f1ervklevxrfe7)" height="60.8047" id="Context" style="stroke:#A80036;stroke-width:1.5;" width="80" x="1198.5" y="306"/><ellipse cx="1213.5" cy="322" fill="#B4A7E5" rx="11" ry="11" style="stroke:#A80036;stroke-width:1.0;"/><path d="M1209.4219,317.7656 L1209.4219,315.6094 L1216.8125,315.6094 L1216.8125,317.7656 L1214.3438,317.7656 L1214.3438,325.8438 L1216.8125,325.8438 L1216.8125,328 L1209.4219,328 L1209.4219,325.8438 L1211.8906,325.8438 L1211.8906,317.7656 L1209.4219,317.7656 Z " fill="#000000"/><text fill="#000000" font-family="sans-serif" font-size="12" font-style="italic" lengthAdjust="spacing" textLength="48" x="1227.5" y="326.1543">Context</text><line style="stroke:#A80036;stroke-width:1.5;" x1="1199.5" x2="1277.5" y1="338" y2="338"/><line style="stroke:#A80036;stroke-width:1.5;" x1="1199.5" x2="1277.5" y1="346" y2="346"/><ellipse cx="1209.5" cy="357" fill="#84BE84" rx="3" ry="3" style="stroke:#038048;stroke-width:1.0;"/><text fill="#000000" font-family="sans-serif" font-size="11" lengthAdjust="spacing" textLength="44" x="1218.5" y="360.2104">create()</text><rect codeLine="74" fill="#FEFECE" filter="url(#f1ervklevxrfe7)" height="86.4141" id="AbstractContext" style="stroke:#A80036;stroke-width:1.5;" width="146" x="755.5" y="134.5"/><ellipse cx="776.35" cy="150.5" fill="#ADD1B2" rx="11" ry="11" style="stroke:#A80036;stroke-width:1.0;"/><path d="M779.3188,156.1406 Q778.7406,156.4375 778.1,156.5859 Q777.4594,156.7344 776.7563,156.7344 Q774.2563,156.7344 772.9359,155.0859 Q771.6156,153.4375 771.6156,150.3125 Q771.6156,147.1875 772.9359,145.5313 Q774.2563,143.875 776.7563,143.875 Q777.4594,143.875 778.1078,144.0313 Q778.7563,144.1875 779.3188,144.4844 L779.3188,147.2031 Q778.6938,146.625 778.1,146.3516 Q777.5063,146.0781 776.8813,146.0781 Q775.5375,146.0781 774.85,147.1484 Q774.1625,148.2188 774.1625,150.3125 Q774.1625,152.4063 774.85,153.4766 Q775.5375,154.5469 776.8813,154.5469 Q777.5063,154.5469 778.1,154.2734 Q778.6938,154 779.3188,153.4219 L779.3188,156.1406 Z " fill="#000000"/><text fill="#000000" font-family="sans-serif" font-size="12" lengthAdjust="spacing" textLength="101" x="791.65" y="154.6543">AbstractContext</text><line style="stroke:#A80036;stroke-width:1.5;" x1="756.5" x2="900.5" y1="166.5" y2="166.5"/><rect fill="none" height="6" style="stroke:#C82930;stroke-width:1.0;" width="6" x="763.5" y="174.5"/><text fill="#000000" font-family="sans-serif" font-size="11" lengthAdjust="spacing" textLength="94" x="775.5" y="180.7104">List~Node~ flow</text><line style="stroke:#A80036;stroke-width:1.5;" x1="756.5" x2="900.5" y1="187.3047" y2="187.3047"/><ellipse cx="766.5" cy="198.3047" fill="#84BE84" rx="3" ry="3" style="stroke:#038048;stroke-width:1.0;"/><text fill="#000000" font-family="sans-serif" font-size="11" lengthAdjust="spacing" textLength="91" x="775.5" y="201.5151">create() Context</text><text fill="#000000" font-family="sans-serif" font-size="11" lengthAdjust="spacing" textLength="120" x="775.5" y="214.3198">createConfig() Config</text><rect codeLine="80" fill="#FEFECE" filter="url(#f1ervklevxrfe7)" height="48" id="AbstractContext的内部类" style="stroke:#A80036;stroke-width:1.5;" width="181" x="7" y="153.5"/><ellipse cx="22" cy="169.5" fill="#E3664A" rx="11" ry="11" style="stroke:#A80036;stroke-width:1.0;"/><path d="M24.0781,169.9688 Q24.0781,169.0313 23.6563,168.5 Q23.2344,167.9688 22.4844,167.9688 Q21.75,167.9688 21.3359,168.5 Q20.9219,169.0313 20.9219,169.9688 Q20.9219,170.9219 21.3359,171.4531 Q21.75,171.9844 22.4844,171.9844 Q23.2344,171.9844 23.6563,171.4531 Q24.0781,170.9219 24.0781,169.9688 Z M25.625,173.375 L24,173.375 L24,172.7031 Q23.6719,173.1406 23.25,173.3438 Q22.8281,173.5469 22.2188,173.5469 Q20.8594,173.5469 20.0313,172.5703 Q19.2031,171.5938 19.2031,169.9688 Q19.2031,168.375 20.0313,167.3984 Q20.8594,166.4219 22.2188,166.4219 Q22.8125,166.4219 23.2656,166.625 Q23.7188,166.8281 24,167.2188 L24,166.875 Q24,165.75 23.375,165.1328 Q22.75,164.5156 21.6094,164.5156 Q19.8906,164.5156 18.7969,166.0391 Q17.7031,167.5625 17.7031,170 Q17.7031,172.5469 18.9609,174.0469 Q20.2188,175.5469 22.3281,175.5469 Q22.9844,175.5469 23.6094,175.3594 Q24.2344,175.1719 24.8125,174.7813 L25.5781,176.2344 Q24.9063,176.6875 24.1094,176.9141 Q23.3125,177.1406 22.4063,177.1406 Q19.5,177.1406 17.7734,175.2109 Q16.0469,173.2813 16.0469,170 Q16.0469,166.7813 17.6016,164.8516 Q19.1563,162.9219 21.7188,162.9219 Q23.5156,162.9219 24.5703,164.0156 Q25.625,165.1094 25.625,166.9844 L25.625,173.375 Z " fill="#000000"/><text fill="#000000" font-family="sans-serif" font-size="12" lengthAdjust="spacing" textLength="149" x="36" y="173.6543">AbstractContext的内部类</text><line style="stroke:#A80036;stroke-width:1.5;" x1="8" x2="187" y1="185.5" y2="185.5"/><line style="stroke:#A80036;stroke-width:1.5;" x1="8" x2="187" y1="193.5" y2="193.5"/><rect codeLine="81" fill="#FEFECE" filter="url(#f1ervklevxrfe7)" height="60.8047" id="ContextBuildFactory" style="stroke:#A80036;stroke-width:1.5;" width="156" x="223.5" y="147"/><ellipse cx="238.5" cy="163" fill="#ADD1B2" rx="11" ry="11" style="stroke:#A80036;stroke-width:1.0;"/><path d="M241.4688,168.6406 Q240.8906,168.9375 240.25,169.0859 Q239.6094,169.2344 238.9063,169.2344 Q236.4063,169.2344 235.0859,167.5859 Q233.7656,165.9375 233.7656,162.8125 Q233.7656,159.6875 235.0859,158.0313 Q236.4063,156.375 238.9063,156.375 Q239.6094,156.375 240.2578,156.5313 Q240.9063,156.6875 241.4688,156.9844 L241.4688,159.7031 Q240.8438,159.125 240.25,158.8516 Q239.6563,158.5781 239.0313,158.5781 Q237.6875,158.5781 237,159.6484 Q236.3125,160.7188 236.3125,162.8125 Q236.3125,164.9063 237,165.9766 Q237.6875,167.0469 239.0313,167.0469 Q239.6563,167.0469 240.25,166.7734 Q240.8438,166.5 241.4688,165.9219 L241.4688,168.6406 Z " fill="#000000"/><text fill="#000000" font-family="sans-serif" font-size="12" lengthAdjust="spacing" textLength="124" x="252.5" y="167.1543">ContextBuildFactory</text><line style="stroke:#A80036;stroke-width:1.5;" x1="224.5" x2="378.5" y1="179" y2="179"/><line style="stroke:#A80036;stroke-width:1.5;" x1="224.5" x2="378.5" y1="187" y2="187"/><text fill="#000000" font-family="sans-serif" font-size="11" lengthAdjust="spacing" textLength="82" x="229.5" y="201.2104">build() Context</text><rect codeLine="85" fill="#FEFECE" filter="url(#f1ervklevxrfe7)" height="60.8047" id="DBContext" style="stroke:#A80036;stroke-width:1.5;" width="146" x="449.5" y="7"/><ellipse cx="486.55" cy="23" fill="#ADD1B2" rx="11" ry="11" style="stroke:#A80036;stroke-width:1.0;"/><path d="M489.5188,28.6406 Q488.9406,28.9375 488.3,29.0859 Q487.6594,29.2344 486.9563,29.2344 Q484.4563,29.2344 483.1359,27.5859 Q481.8156,25.9375 481.8156,22.8125 Q481.8156,19.6875 483.1359,18.0313 Q484.4563,16.375 486.9563,16.375 Q487.6594,16.375 488.3078,16.5313 Q488.9563,16.6875 489.5188,16.9844 L489.5188,19.7031 Q488.8938,19.125 488.3,18.8516 Q487.7063,18.5781 487.0813,18.5781 Q485.7375,18.5781 485.05,19.6484 Q484.3625,20.7188 484.3625,22.8125 Q484.3625,24.9063 485.05,25.9766 Q485.7375,27.0469 487.0813,27.0469 Q487.7063,27.0469 488.3,26.7734 Q488.8938,26.5 489.5188,25.9219 L489.5188,28.6406 Z " fill="#000000"/><text fill="#000000" font-family="sans-serif" font-size="12" lengthAdjust="spacing" textLength="65" x="505.45" y="27.1543">DBContext</text><line style="stroke:#A80036;stroke-width:1.5;" x1="450.5" x2="594.5" y1="39" y2="39"/><line style="stroke:#A80036;stroke-width:1.5;" x1="450.5" x2="594.5" y1="47" y2="47"/><ellipse cx="460.5" cy="58" fill="#84BE84" rx="3" ry="3" style="stroke:#038048;stroke-width:1.0;"/><text fill="#000000" font-family="sans-serif" font-size="11" lengthAdjust="spacing" textLength="120" x="469.5" y="61.2104">createConfig() Config</text><rect codeLine="89" fill="#FEFECE" filter="url(#f1ervklevxrfe7)" height="60.8047" id="FileContext" style="stroke:#A80036;stroke-width:1.5;" width="146" x="713.5" y="7"/><ellipse cx="748.75" cy="23" fill="#ADD1B2" rx="11" ry="11" style="stroke:#A80036;stroke-width:1.0;"/><path d="M751.7188,28.6406 Q751.1406,28.9375 750.5,29.0859 Q749.8594,29.2344 749.1563,29.2344 Q746.6563,29.2344 745.3359,27.5859 Q744.0156,25.9375 744.0156,22.8125 Q744.0156,19.6875 745.3359,18.0313 Q746.6563,16.375 749.1563,16.375 Q749.8594,16.375 750.5078,16.5313 Q751.1563,16.6875 751.7188,16.9844 L751.7188,19.7031 Q751.0938,19.125 750.5,18.8516 Q749.9063,18.5781 749.2813,18.5781 Q747.9375,18.5781 747.25,19.6484 Q746.5625,20.7188 746.5625,22.8125 Q746.5625,24.9063 747.25,25.9766 Q747.9375,27.0469 749.2813,27.0469 Q749.9063,27.0469 750.5,26.7734 Q751.0938,26.5 751.7188,25.9219 L751.7188,28.6406 Z " fill="#000000"/><text fill="#000000" font-family="sans-serif" font-size="12" lengthAdjust="spacing" textLength="69" x="767.25" y="27.1543">FileContext</text><line style="stroke:#A80036;stroke-width:1.5;" x1="714.5" x2="858.5" y1="39" y2="39"/><line style="stroke:#A80036;stroke-width:1.5;" x1="714.5" x2="858.5" y1="47" y2="47"/><ellipse cx="724.5" cy="58" fill="#84BE84" rx="3" ry="3" style="stroke:#038048;stroke-width:1.0;"/><text fill="#000000" font-family="sans-serif" font-size="11" lengthAdjust="spacing" textLength="120" x="733.5" y="61.2104">createConfig() Config</text><rect codeLine="93" fill="#FEFECE" filter="url(#f1ervklevxrfe7)" height="99.2188" id="Engine" style="stroke:#A80036;stroke-width:1.5;" width="110" x="1482.5" y="287"/><ellipse cx="1513.25" cy="303" fill="#B4A7E5" rx="11" ry="11" style="stroke:#A80036;stroke-width:1.0;"/><path d="M1509.1719,298.7656 L1509.1719,296.6094 L1516.5625,296.6094 L1516.5625,298.7656 L1514.0938,298.7656 L1514.0938,306.8438 L1516.5625,306.8438 L1516.5625,309 L1509.1719,309 L1509.1719,306.8438 L1511.6406,306.8438 L1511.6406,298.7656 L1509.1719,298.7656 Z " fill="#000000"/><text fill="#000000" font-family="sans-serif" font-size="12" font-style="italic" lengthAdjust="spacing" textLength="43" x="1530.75" y="307.1543">Engine</text><line style="stroke:#A80036;stroke-width:1.5;" x1="1483.5" x2="1591.5" y1="319" y2="319"/><line style="stroke:#A80036;stroke-width:1.5;" x1="1483.5" x2="1591.5" y1="327" y2="327"/><text fill="#000000" font-family="sans-serif" font-size="11" lengthAdjust="spacing" textLength="98" x="1488.5" y="341.2104">createFlow() Flow</text><text fill="#000000" font-family="sans-serif" font-size="11" lengthAdjust="spacing" textLength="97" x="1488.5" y="354.0151">exec(Context ctx)</text><text fill="#000000" font-family="sans-serif" font-size="11" lengthAdjust="spacing" textLength="87" x="1488.5" y="366.8198">save(Flow flow)</text><text fill="#000000" font-family="sans-serif" font-size="11" lengthAdjust="spacing" textLength="55" x="1488.5" y="379.6245">get() Flow</text><rect codeLine="100" fill="#FEFECE" filter="url(#f1ervklevxrfe7)" height="73.6094" id="Flow" style="stroke:#A80036;stroke-width:1.5;" width="99" x="1348" y="299.5"/><ellipse cx="1381" cy="315.5" fill="#ADD1B2" rx="11" ry="11" style="stroke:#A80036;stroke-width:1.0;"/><path d="M1383.9688,321.1406 Q1383.3906,321.4375 1382.75,321.5859 Q1382.1094,321.7344 1381.4063,321.7344 Q1378.9063,321.7344 1377.5859,320.0859 Q1376.2656,318.4375 1376.2656,315.3125 Q1376.2656,312.1875 1377.5859,310.5313 Q1378.9063,308.875 1381.4063,308.875 Q1382.1094,308.875 1382.7578,309.0313 Q1383.4063,309.1875 1383.9688,309.4844 L1383.9688,312.2031 Q1383.3438,311.625 1382.75,311.3516 Q1382.1563,311.0781 1381.5313,311.0781 Q1380.1875,311.0781 1379.5,312.1484 Q1378.8125,313.2188 1378.8125,315.3125 Q1378.8125,317.4063 1379.5,318.4766 Q1380.1875,319.5469 1381.5313,319.5469 Q1382.1563,319.5469 1382.75,319.2734 Q1383.3438,319 1383.9688,318.4219 L1383.9688,321.1406 Z " fill="#000000"/><text fill="#000000" font-family="sans-serif" font-size="12" lengthAdjust="spacing" textLength="27" x="1399" y="319.6543">Flow</text><line style="stroke:#A80036;stroke-width:1.5;" x1="1349" x2="1446" y1="331.5" y2="331.5"/><text fill="#000000" font-family="sans-serif" font-size="11" lengthAdjust="spacing" textLength="48" x="1354" y="345.7104">String id</text><text fill="#000000" font-family="sans-serif" font-size="11" lengthAdjust="spacing" textLength="87" x="1354" y="358.5151">Node todoNode</text><line style="stroke:#A80036;stroke-width:1.5;" x1="1349" x2="1446" y1="365.1094" y2="365.1094"/><rect codeLine="105" fill="#FEFECE" filter="url(#f1ervklevxrfe7)" height="99.2188" id="FlowEngine" style="stroke:#A80036;stroke-width:1.5;" width="124" x="1405.5" y="128"/><ellipse cx="1430.4" cy="144" fill="#ADD1B2" rx="11" ry="11" style="stroke:#A80036;stroke-width:1.0;"/><path d="M1433.3688,149.6406 Q1432.7906,149.9375 1432.15,150.0859 Q1431.5094,150.2344 1430.8063,150.2344 Q1428.3063,150.2344 1426.9859,148.5859 Q1425.6656,146.9375 1425.6656,143.8125 Q1425.6656,140.6875 1426.9859,139.0313 Q1428.3063,137.375 1430.8063,137.375 Q1431.5094,137.375 1432.1578,137.5313 Q1432.8063,137.6875 1433.3688,137.9844 L1433.3688,140.7031 Q1432.7438,140.125 1432.15,139.8516 Q1431.5563,139.5781 1430.9313,139.5781 Q1429.5875,139.5781 1428.9,140.6484 Q1428.2125,141.7188 1428.2125,143.8125 Q1428.2125,145.9063 1428.9,146.9766 Q1429.5875,148.0469 1430.9313,148.0469 Q1431.5563,148.0469 1432.15,147.7734 Q1432.7438,147.5 1433.3688,146.9219 L1433.3688,149.6406 Z " fill="#000000"/><text fill="#000000" font-family="sans-serif" font-size="12" lengthAdjust="spacing" textLength="70" x="1446.6" y="148.1543">FlowEngine</text><line style="stroke:#A80036;stroke-width:1.5;" x1="1406.5" x2="1528.5" y1="160" y2="160"/><line style="stroke:#A80036;stroke-width:1.5;" x1="1406.5" x2="1528.5" y1="168" y2="168"/><ellipse cx="1416.5" cy="179" fill="#84BE84" rx="3" ry="3" style="stroke:#038048;stroke-width:1.0;"/><text fill="#000000" font-family="sans-serif" font-size="11" lengthAdjust="spacing" textLength="98" x="1425.5" y="182.2104">createFlow() Flow</text><ellipse cx="1416.5" cy="191.8047" fill="#84BE84" rx="3" ry="3" style="stroke:#038048;stroke-width:1.0;"/><text fill="#000000" font-family="sans-serif" font-size="11" lengthAdjust="spacing" textLength="87" x="1425.5" y="195.0151">save(Flow flow)</text><ellipse cx="1416.5" cy="204.6094" fill="#84BE84" rx="3" ry="3" style="stroke:#038048;stroke-width:1.0;"/><text fill="#000000" font-family="sans-serif" font-size="11" lengthAdjust="spacing" textLength="55" x="1425.5" y="207.8198">get() Flow</text><ellipse cx="1416.5" cy="217.4141" fill="#84BE84" rx="3" ry="3" style="stroke:#038048;stroke-width:1.0;"/><text fill="#000000" font-family="sans-serif" font-size="11" lengthAdjust="spacing" textLength="85" x="1425.5" y="220.6245">execNextStep()</text><path codeLine="112" d="M651.5,367.3607 C651.5,387.6842 651.5,414.7719 651.5,438.2261 " fill="none" id="AbstractConfigReader-to-Reader" style="stroke:#A80036;stroke-width:1.0;stroke-dasharray:7.0,7.0;"/><polygon fill="none" points="658.5001,438.4459,651.5,458.4458,644.5001,438.4458,658.5001,438.4459" style="stroke:#A80036;stroke-width:1.0;"/><path codeLine="114" d="M651.5,214.7784 C651.5,235.8933 651.5,262.606 651.5,285.624 " fill="none" id="FileConfigReader-to-AbstractConfigReader" style="stroke:#A80036;stroke-width:1.0;"/><polygon fill="none" points="658.5001,285.8565,651.5,305.8564,644.5001,285.8564,658.5001,285.8565" style="stroke:#A80036;stroke-width:1.0;"/><path codeLine="115" d="M481.5,214.7784 C481.5,243.0033 481.5,281.2307 481.5,307.265 " fill="none" id="DBConfigReader-to-DBmapper" style="stroke:#A80036;stroke-width:1.0;"/><polygon fill="#A80036" points="481.5,312.3027,485.5,303.3027,481.5,307.3027,477.5,303.3027,481.5,312.3027" style="stroke:#A80036;stroke-width:1.0;"/><path codeLine="116" d="M521.3574,214.7784 C546.017,237.8424 577.8176,267.5853 603.8107,291.8965 " fill="none" id="DBConfigReader-to-AbstractConfigReader" style="stroke:#A80036;stroke-width:1.0;"/><polygon fill="none" points="608.9112,287.0824,618.7364,305.8564,599.348,297.3071,608.9112,287.0824" style="stroke:#A80036;stroke-width:1.0;"/><path codeLine="118" d="M780.6013,220.5277 C752.0096,246.2117 716.1997,278.3799 689.552,302.3177 " fill="none" id="AbstractContext-to-AbstractConfigReader" style="stroke:#A80036;stroke-width:1.0;"/><polygon fill="#A80036" points="685.6888,305.788,695.0572,302.7493,689.4084,302.4467,689.711,296.7979,685.6888,305.788" style="stroke:#A80036;stroke-width:1.0;"/><path codeLine="120" d="M513.5024,68.2236 C507.7168,87.9791 500.1241,113.9054 493.7863,135.5467 " fill="none" id="DBContext-to-DBConfigReader" style="stroke:#A80036;stroke-width:1.0;"/><polygon fill="#A80036" points="492.3712,140.3788,498.7395,132.8658,493.7765,135.5803,491.062,130.6174,492.3712,140.3788" style="stroke:#A80036;stroke-width:1.0;"/><path codeLine="121" d="M595.9516,66.2982 C633.8618,81.6367 681.0562,101.4607 737.1956,128.166 " fill="none" id="DBContext-to-AbstractContext" style="stroke:#A80036;stroke-width:1.0;"/><polygon fill="none" points="740.3273,121.9046,755.3198,136.8789,734.2616,134.5223,740.3273,121.9046" style="stroke:#A80036;stroke-width:1.0;"/><path codeLine="123" d="M901.7286,218.6866 C907.6827,221.6195 913.6559,224.4292 919.5,227 C922.5981,228.3628 1087.7563,284.9218 1179.1683,316.2029 " fill="none" id="AbstractContext-to-Context" style="stroke:#A80036;stroke-width:1.0;stroke-dasharray:7.0,7.0;"/><polygon fill="none" points="1181.6171,309.6423,1198.2739,322.7402,1177.0847,322.8884,1181.6171,309.6423" style="stroke:#A80036;stroke-width:1.0;"/><path codeLine="124" d="M828.5,220.5277 C828.5,248.0037 828.5,282.9002 828.5,307.2029 " fill="none" id="AbstractContext-to-Config" style="stroke:#A80036;stroke-width:1.0;"/><polygon fill="#A80036" points="828.5,312.2216,832.5,303.2216,828.5,307.2216,824.5,303.2216,828.5,312.2216" style="stroke:#A80036;stroke-width:1.0;"/><path codeLine="126" d="M795.7171,68.2236 C799.8544,82.0146 804.8938,98.8127 809.7683,115.0611 " fill="none" id="FileContext-to-AbstractContext" style="stroke:#A80036;stroke-width:1.0;"/><polygon fill="none" points="816.5184,113.2007,815.5606,134.3687,803.1088,117.2236,816.5184,113.2007" style="stroke:#A80036;stroke-width:1.0;"/><path codeLine="127" d="M756.8737,68.2236 C737.5036,88.3111 711.9813,114.7786 690.9064,136.6341 " fill="none" id="FileContext-to-FileConfigReader" style="stroke:#A80036;stroke-width:1.0;"/><polygon fill="#A80036" points="687.2954,140.3788,696.422,136.6767,690.7661,136.7796,690.6632,131.1236,687.2954,140.3788" style="stroke:#A80036;stroke-width:1.0;"/><path codeLine="129" d="M1013.5,519.7236 C1013.5,539.3961 1013.5,565.1877 1013.5,586.7736 " fill="none" id="Request-to-RequestType" style="stroke:#A80036;stroke-width:1.0;"/><polygon fill="#A80036" points="1013.5,591.8788,1017.5,582.8788,1013.5,586.8788,1009.5,582.8788,1013.5,591.8788" style="stroke:#A80036;stroke-width:1.0;"/><path codeLine="130" d="M1166.5,519.7236 C1166.5,539.3961 1166.5,565.1877 1166.5,586.7736 " fill="none" id="Response-to-ResponseType" style="stroke:#A80036;stroke-width:1.0;"/><polygon fill="#A80036" points="1166.5,591.8788,1170.5,582.8788,1166.5,586.8788,1162.5,582.8788,1166.5,591.8788" style="stroke:#A80036;stroke-width:1.0;"/><path codeLine="132" d="M1013.5,386.0124 C1013.5,407.8876 1013.5,433.1244 1013.5,453.1408 " fill="none" id="Node-to-Request" style="stroke:#A80036;stroke-width:1.0;"/><polygon fill="#A80036" points="1013.5,458.3758,1017.5,449.3758,1013.5,453.3758,1009.5,449.3758,1013.5,458.3758" style="stroke:#A80036;stroke-width:1.0;"/><path codeLine="133" d="M1063.1747,386.0124 C1085.682,408.4461 1111.7363,434.4153 1132.0511,454.6637 " fill="none" id="Node-to-Response" style="stroke:#A80036;stroke-width:1.0;"/><polygon fill="#A80036" points="1135.7753,458.3758,1132.2245,449.1893,1132.2339,454.8461,1126.5771,454.8555,1135.7753,458.3758" style="stroke:#A80036;stroke-width:1.0;"/><path codeLine="134" d="M965.124,386.0124 C947.586,403.9623 927.8365,424.1758 910.5082,441.911 " fill="none" id="Node-to-NodeType" style="stroke:#A80036;stroke-width:1.0;"/><polygon fill="#A80036" points="906.6202,445.8904,915.7709,442.2483,910.1144,442.314,910.0487,436.6576,906.6202,445.8904" style="stroke:#A80036;stroke-width:1.0;"/><path codeLine="136" d="M999.7778,208.1568 C1001.5651,224.874 1003.8555,246.2956 1006.0509,266.829 " fill="none" id="FunctionNode-to-Node" style="stroke:#A80036;stroke-width:1.0;"/><polygon fill="none" points="1013.0265,266.2282,1008.1925,286.859,999.1058,267.7166,1013.0265,266.2282" style="stroke:#A80036;stroke-width:1.0;"/><path codeLine="137" d="M1123.2778,208.1568 C1107.8617,226.18 1087.7684,249.6715 1068.9927,271.6225 " fill="none" id="SupplierNode-to-Node" style="stroke:#A80036;stroke-width:1.0;"/><polygon fill="none" points="1074.2798,276.2104,1055.9602,286.859,1063.6408,267.1104,1074.2798,276.2104" style="stroke:#A80036;stroke-width:1.0;"/><path codeLine="138" d="M1256.9335,208.1211 C1246.3067,214.4889 1235.089,221.0644 1224.5,227 C1182.2327,250.6926 1134.3548,275.6847 1094.9026,295.8011 " fill="none" id="ConsumerNode-to-Node" style="stroke:#A80036;stroke-width:1.0;"/><polygon fill="none" points="1097.8503,302.155,1076.848,304.9672,1091.5125,289.6716,1097.8503,302.155" style="stroke:#A80036;stroke-width:1.0;"/><path codeLine="140" d="M1489.4564,227.3723 C1495.19,240.3958 1501.4686,254.6572 1507.5404,268.449 " fill="none" id="FlowEngine-to-Engine" style="stroke:#A80036;stroke-width:1.0;stroke-dasharray:7.0,7.0;"/><polygon fill="none" points="1513.9695,265.6795,1515.6215,286.8046,1501.1562,271.3205,1513.9695,265.6795" style="stroke:#A80036;stroke-width:1.0;"/><path codeLine="141" d="M1405.2272,220.7374 C1366.537,247.601 1317.7212,281.4949 1282.9292,305.6518 " fill="none" id="FlowEngine-to-Context" style="stroke:#A80036;stroke-width:1.0;"/><polygon fill="#A80036" points="1278.7574,308.5483,1288.4314,306.7008,1282.8644,305.6966,1283.8687,300.1296,1278.7574,308.5483" style="stroke:#A80036;stroke-width:1.0;"/><path codeLine="142" d="M1445.5436,227.3723 C1436.001,249.0478 1424.9488,274.1521 1415.8524,294.8139 " fill="none" id="FlowEngine-to-Flow" style="stroke:#A80036;stroke-width:1.0;"/><polygon fill="#A80036" points="1413.8235,299.4222,1421.1109,292.7969,1415.8382,294.8461,1413.7891,289.5734,1413.8235,299.4222" style="stroke:#A80036;stroke-width:1.0;"/><path codeLine="143" d="M878.5637,220.5277 C902.4266,241.0369 931.1003,265.6808 955.8672,286.967 " fill="none" id="AbstractContext-Node" style="stroke:#A80036;stroke-width:1.0;"/></g></svg>